<?xml version="1.0" encoding="UTF-8" standalone="no"?>
<svg
	xmlns:dc="http://purl.org/dc/elements/1.1/"
	xmlns:cc="http://creativecommons.org/ns#"
	xmlns:rdf="http://www.w3.org/1999/02/22-rdf-syntax-ns#"
	xmlns:svg="http://www.w3.org/2000/svg"
	xmlns="http://www.w3.org/2000/svg"
	xmlns:xlink="http://www.w3.org/1999/xlink"
	height="330"
	width="1215"
	version="1.1"
	viewBox="0 0 1215 330">
	<path
		id="twinpeaks" 
		d="m 1058.841,190.031 c 1.279,12.242 5.3,23.2 19.367,23.2 10.6,0 18.27,-7.857 18.27,-18.636 0,-31.061 -56.274,-10.963 -56.274,-62.121 0,-21.742 16.444,-35.811 37.638,-35.811 24.3,0 36.176,16.444 37.638,39.1 l -21.012,0 c -1.279,-10.049 -6.577,-19 -17.54,-19 -10.049,0 -15.53,7.309 -15.53,16.992 0,27.589 56.274,8.953 56.274,59.381 0,24.3 -15.713,40.2 -40.013,40.2 -25.762,0 -39.831,-18.637 -40.014,-43.3 l 21.2,0 z m -126.664,41.109 0,-132.28 22.655,0 0,56.822 0.368,0 35.809,-56.822 27.041,0 -35.811,51.524 39.648,80.757 -24.848,0 -30.33,-62.852 -0.366,0 -11.511,18.271 0,44.58 -22.655,0 z m -83.092,-132.28 19.915,0 41.11,132.28 -23.2,0 -10.963,-35.08 -33.257,0 -10.779,35.08 -23.387,0 z m 9.866,34.349 -0.366,0 -11.328,42.754 23.2,0 z m -144.468,97.931 0,-132.28 67.967,0 0,20.1 -45.312,0 0,33.25 46.043,0 0,20.1 -46.043,0 0,38.734 46.408,0 0,20.1 -69.063,0 z m -107.908,0 0,-132.28 34.714,0 c 32.888,0 47.321,17.905 47.321,41.84 0,24.3 -15.165,41.109 -40.743,41.109 l -18.636,0 0,49.331 -22.656,0 z m 22.657,-69.429 16.443,0 c 14.617,0 20.281,-9.684 20.281,-21.56 0,-11.876 -5.664,-21.194 -20.281,-21.194 l -16.444,0 0,42.754 z m -214.644,69.429 0,-132.28 24.112,0 41.841,85.69 0.365,0 0,-85.69 20.1,0 0,132.28 -19.73,0 -46.225,-92.816 -0.366,0 0,92.816 -20.1,0 z m -53.646,0 0,-132.28 22.658,0 0,132.28 -22.658,0 z m -87.209,-132.28 22.107,96.835 0.366,0 19.55,-96.835 23.57,0 -33.071,132.28 -20.828,0 -21.377,-95.74 -0.366,0 -21.742,95.74 -20.829,0 -33.07,-132.28 23.387,0 20.1,96.835 0.365,0 21.192,-96.835 20.647,0 z m -174.117,21.194 0,-21.194 76.007,0 0,21.194 -26.675,0 0,111.086 -22.656,0 0,-111.086 -26.676,0 z"
		/>
	<use
		id="shadow"
		xlink:href="#twinpeaks"
		style="fill:none;stroke:#44413d;stroke-width:8px;stroke-linejoin:round"
		transform="translate(3,3)"
		/>
	<use
		id="fill"
		xlink:href="#twinpeaks"
		style="fill:#784100"
		/>
	<use
		id="stroke"
		xlink:href="#twinpeaks"
		style="fill:none;stroke:#3ca023;stroke-width:6px;stroke-linejoin:round"
		/>
</svg>